<?xml version="1.0" standalone="no"?>
<!DOCTYPE svg PUBLIC "-//W3C//DTD SVG 20010904//EN"
 "http://www.w3.org/TR/2001/REC-SVG-20010904/DTD/svg10.dtd">
<svg version="1.0" xmlns="http://www.w3.org/2000/svg"
 width="924.000000pt" height="924.000000pt" viewBox="0 0 924.000000 924.000000"
 preserveAspectRatio="xMidYMid meet">
<metadata>
Created by potrace 1.14, written by Peter Selinger 2001-2017
</metadata>
<g transform="translate(0.000000,924.000000) scale(0.100000,-0.100000)"
fill="#000000" stroke="none">
<path d="M4577 7168 c-24 -24 -56 -62 -72 -83 -17 -22 -32 -42 -35 -45 -23
-21 -148 -228 -215 -356 -31 -60 -62 -115 -67 -121 -6 -7 -8 -13 -4 -13 3 0
-9 -28 -26 -62 -18 -35 -33 -65 -33 -68 0 -3 -13 -31 -28 -64 -15 -32 -27 -64
-27 -70 0 -7 -4 -16 -9 -21 -4 -6 -16 -32 -26 -60 -10 -27 -22 -55 -27 -61 -4
-6 -9 -19 -11 -30 -2 -10 -10 -32 -16 -49 -36 -85 -152 -443 -165 -504 -2 -9
-6 -23 -9 -31 -8 -23 -61 -261 -71 -320 -3 -19 -7 -44 -10 -55 -2 -11 -7 -51
-11 -90 -4 -38 -9 -83 -11 -100 -12 -106 0 -445 21 -605 3 -19 7 -53 10 -75 5
-39 8 -59 21 -135 10 -59 39 -197 48 -225 2 -5 6 -23 10 -40 13 -52 57 -199
66 -220 4 -11 23 -58 41 -105 85 -222 223 -469 346 -621 56 -69 178 -199 219
-234 25 -22 52 -45 58 -50 25 -23 69 -55 76 -55 26 0 206 167 307 285 57 67
163 209 163 219 0 3 13 24 29 48 42 63 122 219 165 323 20 50 41 99 46 110 13
30 60 167 65 190 3 11 16 60 29 109 14 48 27 102 30 120 3 17 10 46 15 64 5
18 10 33 9 35 0 1 3 18 6 37 6 37 11 75 21 155 4 28 9 61 11 75 19 102 30 460
19 595 -5 50 -9 104 -11 120 -1 17 -3 30 -4 30 -2 0 -8 33 -15 85 -3 25 -12
72 -20 105 -7 33 -16 71 -18 85 -9 47 -63 246 -83 310 -3 8 -5 16 -5 17 0 6
-98 292 -114 333 -50 130 -90 231 -111 278 -13 29 -24 55 -24 58 0 19 -201
409 -253 491 -15 24 -27 47 -27 52 0 5 -4 11 -8 13 -4 2 -28 32 -53 68 -49 70
-73 101 -131 162 l-38 39 -43 -43z"/>
<path d="M2664 6842 c-32 -21 -139 -219 -193 -355 -30 -76 -87 -257 -96 -307
-3 -14 -7 -36 -10 -50 -6 -30 -22 -123 -29 -165 -27 -165 -28 -531 -2 -735 7
-59 19 -136 23 -155 2 -11 8 -42 13 -70 19 -98 30 -146 34 -154 3 -4 8 -23 11
-42 14 -84 108 -361 178 -524 78 -183 194 -396 303 -556 81 -121 115 -169 129
-185 6 -6 24 -29 40 -50 111 -143 331 -367 440 -448 22 -17 42 -33 45 -36 14
-17 136 -104 220 -157 133 -85 394 -213 432 -213 5 0 -19 28 -53 62 -148 148
-290 349 -404 573 -74 146 -171 380 -189 460 -2 6 -9 30 -16 55 -7 25 -14 50
-16 55 -1 6 -7 30 -14 55 -16 67 -37 162 -44 201 -3 19 -8 43 -10 55 -2 12 -7
45 -11 74 -4 29 -8 61 -10 72 -4 17 -10 79 -21 212 -4 57 -4 383 0 461 6 96
28 287 41 355 3 14 8 41 11 60 3 19 7 37 9 40 2 3 6 25 10 48 3 23 22 100 41
170 20 70 37 134 39 142 7 29 65 183 100 264 19 45 35 87 35 94 0 7 5 12 10
12 6 0 10 7 10 15 0 9 11 32 24 53 41 65 41 76 0 108 -20 16 -42 34 -48 40
-18 17 -157 117 -216 154 -180 115 -376 205 -560 258 -97 28 -128 35 -203 47
-15 2 -31 6 -35 9 -4 3 -13 2 -18 -2z"/>
<path d="M6557 6844 c-3 -3 -22 -7 -43 -10 -22 -3 -55 -9 -74 -14 -19 -5 -47
-11 -62 -14 -41 -7 -236 -75 -306 -107 -35 -16 -68 -29 -73 -29 -5 0 -9 -4 -9
-9 0 -5 -12 -12 -26 -15 -14 -4 -43 -18 -65 -31 -21 -14 -41 -25 -44 -25 -4 0
-21 -11 -39 -25 -18 -14 -36 -25 -40 -25 -6 0 -65 -38 -111 -73 -25 -19 -93
-69 -120 -90 -16 -12 -42 -33 -58 -47 l-29 -26 41 -81 c22 -45 57 -121 76
-170 20 -48 40 -97 45 -108 13 -28 81 -236 85 -260 2 -11 13 -56 25 -100 12
-44 23 -89 24 -100 2 -11 6 -29 9 -40 3 -11 8 -38 12 -59 3 -21 7 -48 10 -60
7 -34 16 -97 21 -146 2 -25 6 -63 9 -85 20 -178 20 -557 -1 -720 -4 -27 -8
-61 -9 -75 -2 -14 -6 -44 -9 -66 -4 -23 -9 -59 -11 -80 -17 -132 -111 -477
-161 -591 -8 -17 -14 -33 -14 -36 0 -3 -4 -16 -9 -29 -5 -13 -9 -26 -10 -30
-6 -22 -155 -314 -162 -316 -5 -2 -9 -8 -9 -13 0 -36 -216 -322 -328 -436 -34
-35 -57 -63 -51 -63 6 0 35 11 65 25 30 14 56 25 58 25 5 0 156 73 201 97 17
9 32 20 33 25 2 4 8 8 13 8 15 0 175 107 259 173 156 123 275 236 400 378 40
46 76 86 79 89 14 12 151 200 193 265 132 203 243 409 312 580 16 39 35 84 42
100 29 67 119 343 128 395 3 14 5 25 7 25 1 0 3 9 5 20 1 11 9 47 18 80 8 33
17 78 20 100 3 22 11 63 16 90 22 112 34 282 34 480 -1 200 -10 334 -29 425
-3 14 -7 39 -10 55 -4 28 -14 77 -19 100 -14 56 -21 81 -43 155 -51 170 -129
341 -215 474 -23 35 -41 49 -51 40z"/>
<path d="M1349 5826 c-2 -2 -33 -7 -69 -11 -36 -4 -72 -8 -80 -9 -114 -19
-111 -16 -129 -116 -20 -117 -22 -134 -27 -235 -8 -137 -2 -302 11 -375 3 -14
7 -44 10 -68 5 -34 28 -142 60 -282 11 -50 89 -270 125 -355 44 -103 132 -280
176 -350 13 -22 27 -47 31 -55 4 -8 11 -19 15 -25 14 -17 78 -117 78 -121 0
-2 7 -12 14 -21 17 -20 83 -110 106 -143 20 -28 59 -76 145 -175 103 -118 218
-232 381 -376 43 -38 286 -221 325 -244 18 -11 40 -24 49 -30 151 -98 352
-201 510 -262 127 -50 143 -56 153 -58 4 -2 8 -3 10 -5 1 -1 9 -3 17 -5 8 -2
47 -13 85 -25 39 -12 81 -23 95 -26 14 -3 66 -14 115 -24 207 -42 437 -56 625
-36 41 5 81 8 88 9 28 1 9 15 -30 21 -49 8 -175 43 -200 57 -10 5 -27 9 -37 9
-11 0 -23 4 -26 10 -3 6 -12 10 -20 10 -22 0 -158 63 -280 130 -135 74 -328
210 -440 309 -120 107 -340 340 -393 416 -4 6 -18 24 -32 41 -14 17 -32 41
-40 54 -8 13 -25 35 -37 50 -13 15 -23 32 -23 37 0 6 -9 18 -20 28 -11 10 -20
24 -20 32 0 7 -3 13 -7 13 -8 0 -34 40 -60 90 -7 14 -24 43 -38 65 -29 46
-196 379 -199 398 -1 6 -9 28 -18 47 -17 41 -79 207 -83 224 -1 6 -5 18 -8 26
-14 34 -67 235 -86 327 -64 312 -83 555 -65 849 l6 102 -29 5 c-15 3 -39 8
-53 11 -25 6 -105 22 -150 31 -14 3 -45 8 -70 11 -25 3 -56 8 -70 10 -29 6
-386 15 -391 10z"/>
<path d="M7578 5825 c-1 -1 -34 -6 -71 -10 -37 -3 -78 -8 -90 -11 -12 -2 -35
-6 -52 -9 -33 -4 -124 -23 -140 -29 -5 -2 -28 -7 -51 -11 l-41 -7 1 -247 c1
-204 -5 -345 -19 -441 -12 -86 -18 -128 -21 -145 -2 -11 -7 -33 -10 -50 -4
-23 -40 -182 -49 -215 -1 -3 -5 -18 -9 -35 -19 -71 -92 -288 -128 -380 -39
-100 -192 -413 -229 -470 -10 -16 -22 -38 -25 -47 -4 -10 -10 -18 -15 -18 -5
0 -9 -5 -9 -10 0 -10 -75 -126 -142 -220 -33 -47 -131 -170 -183 -230 -56 -65
-260 -265 -320 -315 -33 -28 -61 -53 -63 -57 -2 -5 -8 -8 -14 -8 -6 0 -18 -8
-27 -18 -14 -15 -36 -31 -126 -92 -131 -88 -354 -207 -374 -200 -2 1 -7 -3
-10 -8 -5 -8 -194 -79 -231 -87 -8 -2 -35 -8 -60 -15 -58 -16 -70 -18 -100
-20 l-25 -1 23 -10 c70 -27 432 -30 587 -4 17 3 44 7 60 10 34 6 41 7 145 30
41 9 83 18 92 20 9 2 25 8 35 13 10 6 23 10 28 11 27 3 132 38 235 78 127 50
403 187 455 225 6 5 58 39 116 77 270 177 552 430 754 674 22 27 45 54 50 60
93 104 257 356 360 552 142 271 260 621 290 860 3 28 8 64 11 80 3 17 7 69 8
116 2 48 6 91 10 97 3 6 4 16 2 24 -3 7 -7 65 -11 128 -3 63 -8 124 -10 135
-3 11 -6 34 -8 50 -3 17 -10 56 -17 87 l-13 56 -51 8 c-28 4 -60 9 -71 10 -11
2 -36 6 -55 9 -35 7 -385 16 -392 10z"/>
<path d="M785 4670 c-120 -19 -123 -20 -240 -50 -44 -12 -87 -23 -95 -25 -8
-2 -16 -4 -17 -5 -2 -2 -6 -3 -10 -4 -5 -1 -21 -6 -38 -13 -58 -22 -70 -26
-83 -29 -22 -4 -245 -116 -275 -138 -24 -18 -27 -24 -22 -65 15 -121 64 -319
101 -406 7 -16 22 -55 34 -85 28 -71 118 -251 136 -271 8 -8 14 -18 14 -22 0
-6 62 -109 70 -117 4 -3 22 -27 41 -55 126 -184 337 -410 533 -570 27 -22 57
-47 67 -55 175 -144 482 -327 764 -455 112 -51 392 -151 475 -170 8 -2 15 -4
15 -5 0 -1 9 -3 20 -5 11 -2 38 -8 60 -14 22 -5 52 -12 68 -15 15 -3 37 -8 50
-11 12 -3 33 -7 47 -10 35 -8 224 -35 290 -43 79 -8 451 -8 540 0 85 8 278 42
328 57 18 5 33 10 35 9 16 -2 206 61 225 75 6 5 12 7 12 3 0 -3 22 5 50 19 27
14 56 25 65 25 8 0 15 4 15 8 0 5 16 14 35 22 19 7 32 17 29 21 -2 5 -10 6
-17 4 -101 -36 -460 -36 -667 -1 -135 23 -363 82 -415 107 -12 6 -28 11 -38
13 -9 1 -20 5 -23 9 -4 4 -13 7 -20 7 -8 0 -38 11 -68 25 -30 14 -58 25 -61
25 -8 0 -245 118 -295 147 -95 54 -269 166 -305 195 -5 5 -32 25 -60 45 -217
160 -511 448 -660 648 -16 22 -32 42 -35 45 -3 3 -17 21 -30 40 -13 19 -27 37
-30 40 -7 6 -121 178 -136 205 -19 35 -85 149 -95 165 -5 8 -13 24 -18 35 -5
11 -27 58 -49 105 -76 160 -146 354 -183 503 -6 26 -14 49 -18 51 -3 1 -55 -5
-116 -14z"/>
<path d="M8334 4671 c-4 -9 -8 -21 -10 -28 -16 -80 -108 -350 -134 -395 -6
-10 -10 -25 -10 -33 0 -8 -5 -15 -12 -15 -6 0 -9 -3 -6 -6 5 -5 -29 -84 -61
-144 -114 -212 -168 -300 -280 -455 -44 -62 -52 -72 -72 -94 -8 -9 -22 -26
-30 -38 -59 -85 -292 -331 -399 -423 -14 -12 -38 -33 -55 -48 -16 -15 -52 -45
-80 -66 -27 -22 -56 -45 -65 -52 -124 -101 -337 -237 -508 -324 -99 -50 -229
-111 -247 -114 -5 -2 -28 -10 -50 -20 -22 -10 -44 -19 -50 -20 -5 -1 -35 -11
-65 -21 -30 -11 -57 -20 -60 -20 -3 -1 -25 -7 -50 -14 -25 -7 -49 -14 -55 -15
-5 -1 -19 -5 -30 -9 -11 -3 -31 -8 -45 -11 -14 -2 -45 -9 -70 -14 -25 -6 -63
-13 -85 -16 -23 -4 -52 -8 -65 -11 -139 -27 -526 -21 -617 10 -7 2 -13 1 -13
-4 0 -10 143 -76 256 -116 115 -42 258 -80 354 -95 41 -6 86 -14 100 -16 80
-14 167 -19 350 -19 184 0 270 5 380 20 19 2 55 7 80 10 25 3 53 8 63 11 11 3
29 7 40 9 131 15 469 116 676 201 97 41 314 143 321 153 3 3 29 17 57 31 29
14 53 28 53 33 0 4 4 7 9 7 10 0 159 90 197 119 12 9 32 23 44 31 13 8 44 31
69 51 25 19 53 40 62 45 15 8 51 38 167 139 221 192 436 452 579 700 82 141
185 372 197 442 3 12 9 31 16 42 6 12 9 21 6 21 -3 0 1 21 9 48 8 26 17 65 20
86 4 21 9 48 11 60 2 11 7 40 10 63 5 40 3 44 -28 63 -64 40 -254 129 -342
159 -92 33 -120 41 -262 74 -11 3 -67 13 -125 22 -57 9 -112 18 -121 19 -9 2
-20 -4 -24 -13z"/>
</g>
</svg>
