<?xml version="1.0" encoding="UTF-8" standalone="no"?>
<!-- Created with Inkscape (http://www.inkscape.org/) -->

<svg
   width="122.13199mm"
   height="68.568939mm"
   viewBox="0 0 122.13199 68.568939"
   version="1.1"
   id="svg4721"
   inkscape:version="1.1.2 (0a00cf5339, 2022-02-04)"
   sodipodi:docname="bloem.svg"
   xmlns:inkscape="http://www.inkscape.org/namespaces/inkscape"
   xmlns:sodipodi="http://sodipodi.sourceforge.net/DTD/sodipodi-0.dtd"
   xmlns="http://www.w3.org/2000/svg"
   xmlns:svg="http://www.w3.org/2000/svg">
  <sodipodi:namedview
     id="namedview4723"
     pagecolor="#ffffff"
     bordercolor="#666666"
     borderopacity="1.0"
     inkscape:pageshadow="2"
     inkscape:pageopacity="0.0"
     inkscape:pagecheckerboard="0"
     inkscape:document-units="mm"
     showgrid="false"
     fit-margin-top="0"
     fit-margin-left="0"
     fit-margin-right="0"
     fit-margin-bottom="0"
     inkscape:zoom="0.45817494"
     inkscape:cx="408.14105"
     inkscape:cy="247.72197"
     inkscape:window-width="2486"
     inkscape:window-height="1016"
     inkscape:window-x="1994"
     inkscape:window-y="27"
     inkscape:window-maximized="1"
     inkscape:current-layer="layer1" />
  <defs
     id="defs4718" />
  <g
     inkscape:label="Layer 1"
     inkscape:groupmode="layer"
     id="layer1"
     transform="translate(-29.019305,-93.453684)">
    <g
       id="g6376-3-7-7-9-3-0-7-2-8-0-5-8-8-2-9-9-6-6-0-5-9-5-9-6-6-5-3-6"
       transform="matrix(0.20338586,0,0,0.20338586,1315.0883,745.96759)"
       inkscape:export-filename="/home/wemeet/Desktop/umiterra.com/umi_terra_v8-yumi-inspired-version.png"
       inkscape:export-xdpi="99"
       inkscape:export-ydpi="99">
      <g
         id="g6334-2-7-1-1-1-7-0-5-7-7-2-8-8-6-2-1-9-5-6-3-3-5-2-1-7-0-6-7">
        <path
           style="fill:#e1b0b3;fill-opacity:1;fill-rule:evenodd;stroke:none;stroke-width:0.934529;stroke-linecap:round;stroke-linejoin:round;stroke-miterlimit:0;stroke-opacity:0.837838"
           d="m -6150.507,-3184.5402 c -28.0247,40.8733 -30.9918,106.6101 -3.0693,169.0225 23.4855,52.4986 63.2835,90.2499 104.5856,104.7012 -31.897,-29.2785 -52.8679,-79.5671 -52.8679,-137.1681 0,-37.8993 9.1125,-73.0561 24.423,-101.4499 -22.6552,-19.5349 -48.0973,-31.88 -73.0714,-35.1057 z"
           id="path2212-5-9-7-8-2-3-7-8-0-0-5-1-7-7-0-0-4-2-2-1-4-4-2-6-9-8-9-7-8-0-3-2-8-6-9-5-6-0-0-7-7-5-1-4-6-5-3-9-7-5"
           inkscape:connector-curvature="0" />
        <g
           style="fill:#e7bfc2;fill-opacity:1"
           id="g6328-5-82-0-5-9-3-7-38-0-9-2-7-6-7-2-4-8-8-1-6-94-7-6-9-6-6-5-3"
           transform="translate(-6.3500003,7.4083337)">
          <path
             inkscape:connector-curvature="0"
             id="path2212-5-9-7-6-5-83-7-9-6-2-4-35-7-5-8-0-2-9-8-1-74-8-1-3-0-1-2-8-6-0-6-5-3-2-9-4-3-4-1-8-8-4-2-7-6-4-4-5-3-3-5"
             d="m -6217.6203,-3125.9559 c -9.8508,-0.1701 -19.392,0.8507 -28.4398,2.9621 -11.9213,48.104 8.3418,110.7104 56.3675,159.3776 46.042,46.6561 105.2134,67.9486 152.545,59.6919 -47.8523,-8.0831 -96.7678,-49.0619 -123.9061,-109.7236 -16.2309,-36.2796 -22.007,-73.6737 -18.5073,-106.6646 -12.9235,-3.5643 -25.733,-5.4817 -38.0593,-5.6434 z"
             style="fill:#e7bfc2;fill-opacity:1;fill-rule:evenodd;stroke:none;stroke-width:0.934529;stroke-linecap:round;stroke-linejoin:round;stroke-miterlimit:0;stroke-opacity:0.837838"
             sodipodi:nodetypes="ccccccc" />
          <path
             inkscape:connector-curvature="0"
             id="path2212-5-9-7-6-2-7-1-5-4-4-0-3-7-2-4-3-6-4-7-5-2-2-3-44-8-0-9-4-5-0-0-5-1-5-7-2-4-1-1-31-7-3-6-9-8-5-9-9-6-8-5-6"
             d="m -6258.0775,-3051.6332 c -22.1992,2.1964 -42.4079,8.6888 -58.8685,19.2202 4.7808,49.329 44.7354,101.6115 106.2307,131.506 58.9689,28.6678 121.8781,29.0302 163.7552,5.4579 -47.8029,9.6943 -108.4952,-11.5028 -155.5002,-59.1356 -28.9723,-29.3585 -47.8233,-63.7871 -55.6172,-97.0485 z"
             style="fill:#eed2d4;fill-opacity:1;fill-rule:evenodd;stroke:none;stroke-width:0.934529;stroke-linecap:round;stroke-linejoin:round;stroke-miterlimit:0;stroke-opacity:0.837838"
             sodipodi:nodetypes="cccccc" />
        </g>
      </g>
      <path
         d="m -6023.0564,-3208.256 c 25.5373,22.5721 60.8558,111.887 59.8554,155.8041 0,66.984 -25.1844,118.7064 -59.8681,144.0138 -0.182,-0.1334 -0.3622,-0.2726 -0.5437,-0.4078 h 0.5551 v -299.4086 c 0,0 0,0 0,0 z m -10e-4,10e-5 c -25.5374,22.5722 -60.8558,111.887 -59.8554,155.8041 0,66.9841 25.1844,118.7064 59.8681,144.0138 0.182,-0.1333 0.3622,-0.2725 0.5437,-0.4077 h -0.5551 v -299.4086 c -5e-4,-5e-4 -8e-4,0 0,0 z"
         style="fill:#c8747a;fill-opacity:1;fill-rule:evenodd;stroke:none;stroke-width:0.837644;stroke-linecap:round;stroke-linejoin:round;stroke-miterlimit:0;stroke-opacity:0.837838"
         id="path2212-5-9-76-1-4-6-2-3-0-2-1-0-3-8-1-9-9-7-2-3-2-3-2-1-8-1-8-4-3-3-5-3-5-0-4-1-3-5-6-1-1-4-6-5-0-3-5-6-2"
         inkscape:connector-curvature="0" />
      <g
         id="g6334-9-5-0-7-8-1-7-2-1-06-4-2-4-7-8-1-5-7-4-5-2-5-9-0-9-9-6-2-9"
         transform="matrix(-1,0,0,1,-12046.098,-2.0960204e-4)">
        <path
           style="fill:#e1b0b3;fill-opacity:1;fill-rule:evenodd;stroke:none;stroke-width:0.934529;stroke-linecap:round;stroke-linejoin:round;stroke-miterlimit:0;stroke-opacity:0.837838"
           d="m -6150.507,-3184.5402 c -28.0247,40.8733 -30.9918,106.6101 -3.0693,169.0225 23.4855,52.4986 63.2835,90.2499 104.5856,104.7012 -31.897,-29.2785 -52.8679,-79.5671 -52.8679,-137.1681 0,-37.8993 9.1125,-73.0561 24.423,-101.4499 -22.6552,-19.5349 -48.0973,-31.88 -73.0714,-35.1057 z"
           id="path2212-5-9-7-8-2-3-7-8-0-0-5-1-7-7-0-0-4-2-2-1-4-4-4-8-9-6-3-4-6-7-0-7-2-2-9-9-6-46-8-0-2-9-7-0-3-48-1-4-1-9-1"
           inkscape:connector-curvature="0" />
        <g
           id="g6328-4-8-9-2-9-0-8-6-69-86-0-6-7-16-6-7-7-3-8-6-0-3-7-7-7-8-1-1-2"
           transform="translate(-6.3500003,7.4083337)">
          <path
             inkscape:connector-curvature="0"
             id="path2212-5-9-7-6-5-83-7-9-6-2-4-35-7-5-8-0-2-9-8-1-74-8-1-1-0-78-8-5-5-5-5-1-1-62-0-6-1-3-8-8-6-7-9-9-6-4-17-7-1-5-2-7"
             d="m -6217.6203,-3125.9559 c -9.8508,-0.1701 -19.392,0.8507 -28.4398,2.9621 -11.9213,48.104 8.3418,110.7104 56.3675,159.3776 46.042,46.6561 105.2134,67.9486 152.545,59.6919 -47.8523,-8.0831 -96.7678,-49.0619 -123.9061,-109.7236 -16.2309,-36.2796 -22.007,-73.6737 -18.5073,-106.6646 -12.9235,-3.5643 -25.733,-5.4817 -38.0593,-5.6434 z"
             style="fill:#e7bfc2;fill-opacity:1;fill-rule:evenodd;stroke:none;stroke-width:0.934529;stroke-linecap:round;stroke-linejoin:round;stroke-miterlimit:0;stroke-opacity:0.837838"
             sodipodi:nodetypes="ccccccc" />
          <path
             inkscape:connector-curvature="0"
             id="path2212-5-9-7-6-2-7-1-5-4-4-0-3-7-2-4-3-6-4-7-5-2-2-3-44-5-6-6-5-8-0-2-3-2-4-5-5-2-7-7-82-0-3-8-7-3-1-5-2-1-2-9-7-0"
             d="m -6258.0775,-3051.6332 c -22.1992,2.1964 -42.4079,8.6888 -58.8685,19.2202 4.7808,49.329 44.7354,101.6115 106.2307,131.506 58.9689,28.6678 121.8781,29.0302 163.7552,5.4579 -47.8029,9.6943 -108.4952,-11.5028 -155.5002,-59.1356 -28.9723,-29.3585 -47.8233,-63.7871 -55.6172,-97.0485 z"
             style="fill:#eed2d4;fill-opacity:1;fill-rule:evenodd;stroke:none;stroke-width:0.934529;stroke-linecap:round;stroke-linejoin:round;stroke-miterlimit:0;stroke-opacity:0.837838"
             sodipodi:nodetypes="cccccc" />
        </g>
      </g>
    </g>
  </g>
</svg>
